<mxfile host="app.diagrams.net" modified="2023-03-27T00:51:29.909Z" agent="Mozilla/5.0 (Windows NT 10.0; Win64; x64) AppleWebKit/537.36 (KHTML, like Gecko) Chrome/111.0.0.0 Safari/537.36" etag="8sKyXg8SehC2i4vqmoaB" version="21.1.0" type="device">
  <diagram id="C5RBs43oDa-KdzZeNtuy" name="Page-1">
    <mxGraphModel dx="1434" dy="764" grid="1" gridSize="10" guides="1" tooltips="1" connect="1" arrows="1" fold="1" page="1" pageScale="1" pageWidth="827" pageHeight="1169" math="0" shadow="0">
      <root>
        <mxCell id="WIyWlLk6GJQsqaUBKTNV-0" />
        <mxCell id="WIyWlLk6GJQsqaUBKTNV-1" parent="WIyWlLk6GJQsqaUBKTNV-0" />
        <mxCell id="vvv5VEEP1omCQ_7R7y2d-0" style="edgeStyle=orthogonalEdgeStyle;rounded=0;orthogonalLoop=1;jettySize=auto;html=1;exitX=0.5;exitY=1;exitDx=0;exitDy=0;entryX=0.5;entryY=0;entryDx=0;entryDy=0;" edge="1" parent="WIyWlLk6GJQsqaUBKTNV-1" source="vvv5VEEP1omCQ_7R7y2d-1" target="vvv5VEEP1omCQ_7R7y2d-13">
          <mxGeometry relative="1" as="geometry" />
        </mxCell>
        <mxCell id="vvv5VEEP1omCQ_7R7y2d-1" value="p&amp;lt;=9" style="rhombus;whiteSpace=wrap;html=1;" vertex="1" parent="WIyWlLk6GJQsqaUBKTNV-1">
          <mxGeometry x="382.5" y="725" width="80" height="40" as="geometry" />
        </mxCell>
        <mxCell id="vvv5VEEP1omCQ_7R7y2d-2" style="edgeStyle=orthogonalEdgeStyle;rounded=0;orthogonalLoop=1;jettySize=auto;html=1;exitX=0.5;exitY=1;exitDx=0;exitDy=0;entryX=0.5;entryY=0;entryDx=0;entryDy=0;" edge="1" parent="WIyWlLk6GJQsqaUBKTNV-1" source="vvv5VEEP1omCQ_7R7y2d-3" target="vvv5VEEP1omCQ_7R7y2d-5">
          <mxGeometry relative="1" as="geometry" />
        </mxCell>
        <mxCell id="vvv5VEEP1omCQ_7R7y2d-3" value="구구단 출력" style="rounded=1;whiteSpace=wrap;html=1;arcSize=50;" vertex="1" parent="WIyWlLk6GJQsqaUBKTNV-1">
          <mxGeometry x="372.5" y="350" width="100" height="20" as="geometry" />
        </mxCell>
        <mxCell id="vvv5VEEP1omCQ_7R7y2d-4" style="edgeStyle=orthogonalEdgeStyle;rounded=0;orthogonalLoop=1;jettySize=auto;html=1;exitX=0.5;exitY=1;exitDx=0;exitDy=0;entryX=0.5;entryY=0;entryDx=0;entryDy=0;" edge="1" parent="WIyWlLk6GJQsqaUBKTNV-1" source="vvv5VEEP1omCQ_7R7y2d-5" target="vvv5VEEP1omCQ_7R7y2d-9">
          <mxGeometry relative="1" as="geometry" />
        </mxCell>
        <mxCell id="vvv5VEEP1omCQ_7R7y2d-5" value="p=1, d=2" style="shape=hexagon;perimeter=hexagonPerimeter2;whiteSpace=wrap;html=1;fixedSize=1;" vertex="1" parent="WIyWlLk6GJQsqaUBKTNV-1">
          <mxGeometry x="362.5" y="395" width="120" height="30" as="geometry" />
        </mxCell>
        <mxCell id="vvv5VEEP1omCQ_7R7y2d-6" style="edgeStyle=orthogonalEdgeStyle;rounded=0;orthogonalLoop=1;jettySize=auto;html=1;exitX=0.5;exitY=1;exitDx=0;exitDy=0;entryX=0.5;entryY=0;entryDx=0;entryDy=0;" edge="1" parent="WIyWlLk6GJQsqaUBKTNV-1" source="vvv5VEEP1omCQ_7R7y2d-8" target="vvv5VEEP1omCQ_7R7y2d-17">
          <mxGeometry relative="1" as="geometry" />
        </mxCell>
        <mxCell id="vvv5VEEP1omCQ_7R7y2d-7" value="" style="edgeStyle=orthogonalEdgeStyle;rounded=0;orthogonalLoop=1;jettySize=auto;html=1;" edge="1" parent="WIyWlLk6GJQsqaUBKTNV-1" source="vvv5VEEP1omCQ_7R7y2d-8" target="vvv5VEEP1omCQ_7R7y2d-17">
          <mxGeometry relative="1" as="geometry" />
        </mxCell>
        <mxCell id="vvv5VEEP1omCQ_7R7y2d-8" value="d++" style="rounded=0;whiteSpace=wrap;html=1;" vertex="1" parent="WIyWlLk6GJQsqaUBKTNV-1">
          <mxGeometry x="402.5" y="525" width="40" height="20" as="geometry" />
        </mxCell>
        <mxCell id="vvv5VEEP1omCQ_7R7y2d-9" value="%d*%d=%d\t, d, p, d*p" style="shape=document;whiteSpace=wrap;html=1;boundedLbl=1;" vertex="1" parent="WIyWlLk6GJQsqaUBKTNV-1">
          <mxGeometry x="362.5" y="445" width="125" height="60" as="geometry" />
        </mxCell>
        <mxCell id="vvv5VEEP1omCQ_7R7y2d-10" style="edgeStyle=orthogonalEdgeStyle;rounded=0;orthogonalLoop=1;jettySize=auto;html=1;exitX=0.5;exitY=1;exitDx=0;exitDy=0;entryX=0.5;entryY=0;entryDx=0;entryDy=0;" edge="1" parent="WIyWlLk6GJQsqaUBKTNV-1" source="vvv5VEEP1omCQ_7R7y2d-11" target="vvv5VEEP1omCQ_7R7y2d-1">
          <mxGeometry relative="1" as="geometry" />
        </mxCell>
        <mxCell id="vvv5VEEP1omCQ_7R7y2d-11" value="p++, d=2" style="rounded=0;whiteSpace=wrap;html=1;" vertex="1" parent="WIyWlLk6GJQsqaUBKTNV-1">
          <mxGeometry x="380" y="685" width="80" height="20" as="geometry" />
        </mxCell>
        <mxCell id="vvv5VEEP1omCQ_7R7y2d-12" value="\n" style="shape=document;whiteSpace=wrap;html=1;boundedLbl=1;" vertex="1" parent="WIyWlLk6GJQsqaUBKTNV-1">
          <mxGeometry x="392.5" y="625" width="57.5" height="40" as="geometry" />
        </mxCell>
        <mxCell id="vvv5VEEP1omCQ_7R7y2d-13" value="끝" style="rounded=1;whiteSpace=wrap;html=1;arcSize=50;" vertex="1" parent="WIyWlLk6GJQsqaUBKTNV-1">
          <mxGeometry x="396.25" y="785" width="50" height="20" as="geometry" />
        </mxCell>
        <mxCell id="vvv5VEEP1omCQ_7R7y2d-14" style="edgeStyle=orthogonalEdgeStyle;rounded=0;orthogonalLoop=1;jettySize=auto;html=1;exitX=0.5;exitY=1;exitDx=0;exitDy=0;entryX=0.5;entryY=0;entryDx=0;entryDy=0;" edge="1" parent="WIyWlLk6GJQsqaUBKTNV-1" source="vvv5VEEP1omCQ_7R7y2d-17" target="vvv5VEEP1omCQ_7R7y2d-12">
          <mxGeometry relative="1" as="geometry" />
        </mxCell>
        <mxCell id="vvv5VEEP1omCQ_7R7y2d-15" style="edgeStyle=orthogonalEdgeStyle;rounded=0;orthogonalLoop=1;jettySize=auto;html=1;exitX=0;exitY=0.5;exitDx=0;exitDy=0;" edge="1" parent="WIyWlLk6GJQsqaUBKTNV-1" source="vvv5VEEP1omCQ_7R7y2d-17">
          <mxGeometry relative="1" as="geometry">
            <mxPoint x="410" y="435" as="targetPoint" />
            <Array as="points">
              <mxPoint x="340" y="585" />
              <mxPoint x="340" y="435" />
            </Array>
          </mxGeometry>
        </mxCell>
        <mxCell id="vvv5VEEP1omCQ_7R7y2d-16" style="edgeStyle=orthogonalEdgeStyle;rounded=0;orthogonalLoop=1;jettySize=auto;html=1;exitX=0;exitY=0.5;exitDx=0;exitDy=0;entryX=0;entryY=0.5;entryDx=0;entryDy=0;" edge="1" parent="WIyWlLk6GJQsqaUBKTNV-1" source="vvv5VEEP1omCQ_7R7y2d-17" target="vvv5VEEP1omCQ_7R7y2d-1">
          <mxGeometry relative="1" as="geometry" />
        </mxCell>
        <mxCell id="vvv5VEEP1omCQ_7R7y2d-17" value="d&amp;lt;=9" style="rhombus;whiteSpace=wrap;html=1;" vertex="1" parent="WIyWlLk6GJQsqaUBKTNV-1">
          <mxGeometry x="382.5" y="565" width="80" height="40" as="geometry" />
        </mxCell>
        <mxCell id="vvv5VEEP1omCQ_7R7y2d-18" value="" style="endArrow=classic;html=1;rounded=0;entryX=0.5;entryY=0;entryDx=0;entryDy=0;exitX=0.492;exitY=0.9;exitDx=0;exitDy=0;exitPerimeter=0;" edge="1" parent="WIyWlLk6GJQsqaUBKTNV-1" source="vvv5VEEP1omCQ_7R7y2d-9" target="vvv5VEEP1omCQ_7R7y2d-8">
          <mxGeometry width="50" height="50" relative="1" as="geometry">
            <mxPoint x="420" y="495" as="sourcePoint" />
            <mxPoint x="680" y="605" as="targetPoint" />
          </mxGeometry>
        </mxCell>
        <mxCell id="vvv5VEEP1omCQ_7R7y2d-19" value="" style="endArrow=classic;html=1;rounded=0;exitX=0.496;exitY=0.875;exitDx=0;exitDy=0;exitPerimeter=0;entryX=0.5;entryY=0;entryDx=0;entryDy=0;" edge="1" parent="WIyWlLk6GJQsqaUBKTNV-1" source="vvv5VEEP1omCQ_7R7y2d-12" target="vvv5VEEP1omCQ_7R7y2d-11">
          <mxGeometry width="50" height="50" relative="1" as="geometry">
            <mxPoint x="630" y="555" as="sourcePoint" />
            <mxPoint x="680" y="505" as="targetPoint" />
          </mxGeometry>
        </mxCell>
        <mxCell id="vvv5VEEP1omCQ_7R7y2d-20" value="y" style="text;html=1;strokeColor=none;fillColor=none;align=center;verticalAlign=middle;whiteSpace=wrap;rounded=0;" vertex="1" parent="WIyWlLk6GJQsqaUBKTNV-1">
          <mxGeometry x="352.5" y="565" width="20" height="20" as="geometry" />
        </mxCell>
        <mxCell id="vvv5VEEP1omCQ_7R7y2d-21" value="y" style="text;html=1;strokeColor=none;fillColor=none;align=center;verticalAlign=middle;whiteSpace=wrap;rounded=0;" vertex="1" parent="WIyWlLk6GJQsqaUBKTNV-1">
          <mxGeometry x="362.5" y="725" width="20" height="20" as="geometry" />
        </mxCell>
        <mxCell id="vvv5VEEP1omCQ_7R7y2d-22" value="n" style="text;html=1;strokeColor=none;fillColor=none;align=center;verticalAlign=middle;whiteSpace=wrap;rounded=0;" vertex="1" parent="WIyWlLk6GJQsqaUBKTNV-1">
          <mxGeometry x="426.25" y="605" width="20" height="20" as="geometry" />
        </mxCell>
        <mxCell id="vvv5VEEP1omCQ_7R7y2d-23" value="n" style="text;html=1;strokeColor=none;fillColor=none;align=center;verticalAlign=middle;whiteSpace=wrap;rounded=0;" vertex="1" parent="WIyWlLk6GJQsqaUBKTNV-1">
          <mxGeometry x="422.5" y="765" width="20" height="20" as="geometry" />
        </mxCell>
      </root>
    </mxGraphModel>
  </diagram>
</mxfile>
